<svg width="24" height="24" viewBox="0 0 24 24" fill="none" xmlns="http://www.w3.org/2000/svg">
<path d="M1.50005 0C1.10221 0 0.720668 0.148739 0.439354 0.413496C0.15804 0.678253 0 1.03734 0 1.41176C0 1.78619 0.15804 2.14528 0.439354 2.41003C0.720668 2.67479 1.10221 2.82353 1.50005 2.82353H3.33011L3.78763 4.54871C3.79217 4.56857 3.79717 4.58834 3.80263 4.608L5.83969 12.2739L4.50015 13.5332C2.61009 15.312 3.94813 18.3529 6.62122 18.3529H19.5007C19.8985 18.3529 20.28 18.2042 20.5613 17.9394C20.8427 17.6747 21.0007 17.3156 21.0007 16.9412C21.0007 16.5668 20.8427 16.2077 20.5613 15.9429C20.28 15.6782 19.8985 15.5294 19.5007 15.5294H6.62122L8.12127 14.1176H18.0006C18.2791 14.1175 18.5521 14.0444 18.7889 13.9065C19.0258 13.7686 19.2172 13.5714 19.3416 13.3369L23.8418 4.86635C23.956 4.65117 24.01 4.41208 23.9985 4.17177C23.987 3.93146 23.9104 3.69791 23.7761 3.49326C23.6417 3.28862 23.4541 3.11967 23.2309 3.00246C23.0077 2.88525 22.7563 2.82366 22.5008 2.82353H6.42021L5.9552 1.06871C5.87394 0.763417 5.68662 0.492436 5.42299 0.298808C5.15937 0.10518 4.83455 8.27355e-06 4.50015 0H1.50005ZM21.0007 21.8824C21.0007 22.444 20.7636 22.9826 20.3417 23.3798C19.9197 23.7769 19.3474 24 18.7506 24C18.1539 24 17.5816 23.7769 17.1596 23.3798C16.7376 22.9826 16.5006 22.444 16.5006 21.8824C16.5006 21.3207 16.7376 20.7821 17.1596 20.385C17.5816 19.9878 18.1539 19.7647 18.7506 19.7647C19.3474 19.7647 19.9197 19.9878 20.3417 20.385C20.7636 20.7821 21.0007 21.3207 21.0007 21.8824ZM6.75023 24C7.34698 24 7.9193 23.7769 8.34127 23.3798C8.76324 22.9826 9.0003 22.444 9.0003 21.8824C9.0003 21.3207 8.76324 20.7821 8.34127 20.385C7.9193 19.9878 7.34698 19.7647 6.75023 19.7647C6.15347 19.7647 5.58115 19.9878 5.15918 20.385C4.73721 20.7821 4.50015 21.3207 4.50015 21.8824C4.50015 22.444 4.73721 22.9826 5.15918 23.3798C5.58115 23.7769 6.15347 24 6.75023 24Z" fill="#4D4D4D"/>
</svg>
